<svg width="667" height="667" viewBox="0 0 667 667" fill="none" xmlns="http://www.w3.org/2000/svg">
<path fill-rule="evenodd" clip-rule="evenodd" d="M333.333 666.667C517.427 666.667 666.667 517.427 666.667 333.333C666.667 149.238 517.427 0 333.333 0C149.238 0 0 149.238 0 333.333C0 386.657 12.5207 437.053 34.782 481.75C40.698 493.627 42.667 507.203 39.2373 520.02L19.3837 594.223C10.765 626.433 40.2337 655.9 72.445 647.283L146.646 627.43C159.464 624 173.04 625.97 184.918 631.883C229.612 654.147 280.01 666.667 333.333 666.667ZM200 375C186.193 375 175 386.193 175 400C175 413.807 186.193 425 200 425H383.333C397.14 425 408.333 413.807 408.333 400C408.333 386.193 397.14 375 383.333 375H200ZM175 283.333C175 269.527 186.193 258.333 200 258.333H466.667C480.473 258.333 491.667 269.527 491.667 283.333C491.667 297.14 480.473 308.333 466.667 308.333H200C186.193 308.333 175 297.14 175 283.333Z" fill="#1C274C"/>
</svg>
