<svg width="701" height="625" viewBox="0 0 701 625" fill="none" xmlns="http://www.w3.org/2000/svg">
<path d="M511.318 50.0001C529.52 49.9847 547.541 53.6033 564.327 60.6436C581.112 67.684 596.323 78.0045 609.068 91.0001C635.328 117.66 650.048 153.579 650.048 191C650.048 228.421 635.328 264.341 609.068 291L350.068 553.25L91.0676 291C64.8072 264.341 50.0873 228.421 50.0873 191C50.0873 153.579 64.8072 117.66 91.0676 91.0001C103.82 78.0138 119.032 67.6988 135.815 60.6574C152.599 53.6159 170.617 49.9893 188.818 49.9893C207.018 49.9893 225.036 53.6159 241.82 60.6574C258.603 67.6988 273.815 78.0138 286.568 91.0001L350.068 156L413.318 91.5001C426.024 78.3496 441.251 67.8966 458.09 60.766C474.928 53.6355 493.032 49.9738 511.318 50.0001ZM511.318 6.70713e-05C486.458 -0.0210009 461.845 4.92145 438.92 14.5376C415.996 24.1538 395.223 38.2501 377.818 56.0001L350.068 84.0001L322.318 56.0001C304.891 38.2821 284.113 24.2103 261.192 14.6048C238.272 4.99936 213.669 0.0524357 188.818 0.0524357C163.966 0.0524357 139.363 4.99936 116.443 14.6048C93.5227 24.2103 72.7439 38.2821 55.3176 56.0001C19.8646 92.0907 0 140.659 0 191.25C0 241.841 19.8646 290.409 55.3176 326.5L350.068 625L644.818 326.5C680.271 290.409 700.135 241.841 700.135 191.25C700.135 140.659 680.271 92.0907 644.818 56.0001C627.396 38.2727 606.619 24.1911 583.698 14.5766C560.778 4.96205 536.173 0.00690245 511.318 6.70713e-05Z" fill="black"/>
</svg>
