<svg width="680" height="600" viewBox="0 0 680 600" fill="none" xmlns="http://www.w3.org/2000/svg">
<path d="M88.6942 335.695L320.449 553.405C328.432 560.902 332.422 564.652 337.129 565.575C339.249 565.992 341.429 565.992 343.549 565.575C348.255 564.652 352.245 560.902 360.229 553.405L591.982 335.695C657.188 274.442 665.105 173.642 610.265 102.957L599.955 89.6664C534.348 5.10769 402.659 19.2887 356.562 115.877C350.049 129.52 330.629 129.52 324.115 115.877C278.019 19.2887 146.329 5.10769 80.7232 89.6667L70.4115 102.957C15.5702 173.642 23.4885 274.442 88.6942 335.695Z" fill="#222222" stroke="#222222" stroke-width="66.6667"/>
</svg>
