<svg width="667" height="667" viewBox="0 0 667 667" fill="none" xmlns="http://www.w3.org/2000/svg">
<path fill-rule="evenodd" clip-rule="evenodd" d="M370.203 666.667H296.463C181.579 666.667 124.136 666.667 84.9676 632.94C45.7986 599.213 37.6749 542.757 21.4279 429.84L12.1356 365.263C-0.512436 277.36 -6.83643 233.41 11.1789 195.832C29.1942 158.253 67.5396 135.411 144.23 89.727L190.392 62.229C260.035 20.743 294.857 0 333.333 0C371.81 0 406.633 20.743 476.273 62.229L522.437 89.727C599.127 135.411 637.473 158.253 655.487 195.832C673.503 233.41 667.18 277.36 654.53 365.263L645.24 429.84C628.99 542.757 620.867 599.213 581.7 632.94C542.53 666.667 485.087 666.667 370.203 666.667ZM213.252 451.773C221.474 440.68 237.132 438.353 248.224 446.577C272.503 464.57 301.807 474.993 333.337 474.993C364.867 474.993 394.17 464.57 418.45 446.577C429.543 438.353 445.2 440.68 453.42 451.773C461.643 462.863 459.317 478.523 448.223 486.743C415.81 510.77 376.17 524.993 333.337 524.993C290.503 524.993 250.863 510.77 218.45 486.743C207.357 478.523 205.031 462.863 213.252 451.773Z" fill="#1C274C"/>
</svg>
