<svg width="265" height="214" viewBox="0 0 265 214" fill="none" xmlns="http://www.w3.org/2000/svg">
<path fill-rule="evenodd" clip-rule="evenodd" d="M42.2677 41.6137C42.7677 54.9471 42.7677 83.5137 38.7677 91.1137C37.601 95.9471 30.9677 105.414 13.7677 104.614C26.2677 138.614 75.2677 194.614 132.268 213.614C198.768 190.114 324.868 74.4138 231.268 7.61376C231.934 14.6138 231.168 29.3137 222.768 32.1137C238.768 7.61372 183.768 -27.2863 145.768 35.1137C144.101 38.947 139.768 46.9137 135.768 48.1137C130.768 49.6137 114.768 65.6137 135.768 86.1137C135.8 86.146 135.852 86.2007 135.923 86.2762C138.058 88.5406 157.85 109.533 205.268 107.114C197.934 114.114 176.568 124.114 149.768 108.114C149.268 115.447 143.868 131.614 126.268 137.614C115.934 139.78 91.7676 138.214 77.7676 114.614C94.2676 125.447 129.268 140.014 137.268 111.614C138.268 107.78 135.868 96.6137 118.268 82.6137C118.108 81.9735 117.803 81.292 117.437 80.4702C115.511 76.1567 111.86 67.9769 118.268 41.6137C117.268 20.6137 90.0677 -16.0863 33.2677 9.1137C6.13853 20.5 -18.9323 88.7137 20.2677 95.1137C25.1018 93.7803 34.4695 87.1136 33.2677 71.1136C33.2684 66.2804 35.0695 53.6138 42.2677 41.6137ZM153.765 42.1136C157.265 33.1136 167.865 20.0136 182.265 39.6136C177.099 37.447 164.165 34.9136 153.765 42.1136ZM74.7653 56.6136C82.2653 48.6136 98.5653 38.9136 103.765 64.1136C100.432 59.947 89.9653 52.6136 74.7653 56.6136Z" fill="white"/>
</svg>
